<svg width="190" height="175" viewBox="0 0 190 175" fill="none" xmlns="http://www.w3.org/2000/svg">
<g clip-path="url(#clip0_26_711)">
<path d="M91.3877 58.3879C91.3375 58.476 91.2623 58.5641 91.2121 58.6396C90.9361 59.206 90.6727 59.7724 90.3843 60.3262C90.171 60.7289 89.9453 61.1317 89.7195 61.5219C89.732 61.547 89.7446 61.5722 89.7697 61.5974C89.8951 61.7358 90.0331 61.8869 90.0958 61.9624C90.3968 61.8491 90.6226 61.7736 90.8483 61.6855C91.0365 61.61 91.2623 61.5722 91.4002 61.4338C92.0023 60.8045 92.5667 60.15 93.1437 59.5081C93.3068 59.1808 93.4824 58.8536 93.9464 58.9669C94.2976 58.9501 94.4314 58.7739 94.3478 58.4382C94.3478 58.4382 94.3478 58.4131 94.3478 58.4005C94.26 58.2998 94.1848 58.1991 94.097 58.0858C93.4824 57.7334 92.8678 57.381 92.2532 57.0286C92.203 57.0286 92.1403 57.0286 92.0901 57.0286C92.0901 57.1418 92.1403 57.3558 92.1026 57.3684C91.6511 57.5572 91.6009 58.0229 91.3877 58.3753V58.3879Z" fill="#E30613"/>
<path d="M89.4434 30.4966C90.3841 31.8559 91.3249 33.2153 92.2656 34.5746C92.529 35.0025 92.7924 35.4305 93.0683 35.8584C93.9463 37.0541 94.8369 38.2372 95.7023 39.4455C95.8403 39.6343 95.8779 39.886 95.9532 40.1126C96.1413 40.3517 96.342 40.5908 96.5302 40.83V41.0691C96.8688 41.2579 97.2075 41.4467 97.3329 41.8746C97.5712 42.139 97.8095 42.4033 98.0479 42.6676C98.3238 42.1515 98.675 42.1767 99.1893 42.7557C99.1015 42.9067 99.0262 43.0703 98.9384 43.234C99.0764 43.4479 99.2143 43.6745 99.3649 43.8885C99.6032 44.2283 99.9042 44.5178 99.854 45.0086C99.829 45.2478 99.9795 45.4869 100.042 45.7261C100.017 45.8016 100.005 45.8771 99.9795 45.9526C100.193 46.0785 100.055 46.1792 99.9544 46.2673C100.03 46.3302 100.092 46.4435 100.168 46.4686C100.506 46.5567 100.845 46.6197 101.184 46.6952C101.447 47.035 101.723 47.3874 101.986 47.7273C102.036 47.8405 102.087 47.9664 102.149 48.13C102.526 48.0419 102.864 47.5133 103.328 47.8909C103.705 47.979 103.956 48.2056 104.068 48.5957C103.956 48.6587 103.855 48.709 103.742 48.7594C103.629 48.86 103.517 48.9733 103.404 49.074C103.203 49.0614 103.002 49.0363 102.789 49.0237C102.839 49.1495 102.889 49.2754 102.927 49.4013C103.14 49.3761 103.354 49.3509 103.567 49.3257C103.755 49.5145 103.943 49.7033 104.131 49.8921C104.407 50.0054 104.696 50.1061 104.959 50.2571C105.059 50.3201 105.097 50.4837 105.185 50.6221C105.323 50.5718 105.486 50.5089 105.674 50.4459C105.674 50.6473 105.674 50.7857 105.674 50.9242C106.025 51.1382 106.389 51.327 106.715 51.5661C106.941 51.7297 107.079 51.7045 107.229 51.478C107.342 51.3144 107.43 51.0249 107.744 51.2137C108.019 51.3899 107.907 51.5913 107.831 51.8304C107.794 51.9563 107.919 52.1325 107.982 52.2961C108.371 52.4849 108.734 52.787 109.136 52.8247C109.738 52.8751 110.214 53.1268 110.716 53.4163C111.143 53.6554 111.619 53.7939 112.083 53.9701C112.171 53.7939 112.272 53.6177 112.359 53.4415C112.347 53.3911 112.334 53.3408 112.322 53.2904C112.497 53.3408 112.723 53.3408 112.848 53.454C113.049 53.6428 112.836 53.7939 112.723 53.9575C112.598 54.1337 112.51 54.3477 112.397 54.5365H112.435C112.736 54.6749 112.949 54.5365 113.137 54.2973C113.287 54.0078 113.425 53.7184 113.576 53.4289C113.902 53.6051 114.178 53.7561 114.542 53.9575C114.429 54.2344 114.303 54.5365 114.178 54.8511C114.103 55.3042 114.529 55.4175 114.742 55.6818C114.805 55.7196 114.868 55.7699 114.956 55.8203C114.88 55.9084 114.818 55.9713 114.755 56.0468C114.655 56.1349 114.554 56.223 114.441 56.2985C114.441 56.2985 114.441 56.3992 114.441 56.4622C114.467 56.4873 114.492 56.4999 114.517 56.5251C114.83 56.6636 115.169 56.7768 115.445 56.9656C115.821 57.2173 116.172 57.2929 116.524 56.9656C116.674 57.0789 116.825 57.2174 116.988 57.318C117.226 57.4565 117.226 57.6327 117.101 57.8341C117.565 58.0858 118.016 58.3501 118.48 58.6018C118.932 58.8536 119.371 59.1179 119.822 59.3696C120.939 59.9612 122.08 60.5401 123.184 61.1694C123.209 61.182 123.234 61.2072 123.259 61.2198C116.085 47.2238 104.043 36.1605 89.3682 30.2827C89.4058 30.3456 89.4183 30.4211 89.4434 30.4966Z" fill="#E30613"/>
<path d="M95.4013 54.1463L96.2668 52.4597L95.1755 53.1016C95.4515 53.4289 95.301 53.8064 95.4013 54.1589V54.1463Z" fill="#E30613"/>
<path d="M97.659 62.5162C97.5837 62.6169 97.5336 62.7427 97.4834 62.8686C97.6214 62.8434 97.7593 62.8183 97.8973 62.7931C97.9224 62.9567 97.9349 63.0826 97.96 63.1958C98.1356 63.3217 98.3238 63.4602 98.4994 63.586C98.6248 63.6741 98.7377 63.7748 98.8631 63.8629C98.9635 63.7496 99.1014 63.6615 99.1767 63.5357C99.5279 62.9693 99.8791 62.3777 100.23 61.7988C100.23 61.7988 100.293 61.7232 100.331 61.6855C100.431 61.5596 100.519 61.4212 100.619 61.2953C100.092 61.0688 99.5655 60.8548 99.0262 60.6282C98.8129 60.6912 98.5997 60.7415 98.3865 60.8044C98.3865 60.8296 98.3739 60.8548 98.3614 60.88C98.4617 60.8925 98.5746 60.9051 98.7377 60.9303C98.6624 61.1317 98.5872 61.3205 98.5119 61.5093C98.2234 61.8365 97.9349 62.1638 97.659 62.5036V62.5162Z" fill="#E30613"/>
<path d="M92.5792 55.0274L92.9932 54.3729C92.8176 54.5617 92.4538 54.6498 92.5792 55.0274Z" fill="#E30613"/>
<path d="M95.1755 53.1016C95.1128 53.0261 95.2884 52.724 95.4013 52.5604C95.4389 52.4975 95.627 52.5352 95.7399 52.5226C95.9155 52.5101 96.0911 52.4849 96.2667 52.4723C96.3169 52.3338 96.3796 52.208 96.4298 52.0695C96.3545 51.9437 96.2667 51.8052 96.1915 51.6794C96.0033 51.5535 95.8152 51.415 95.6145 51.2892C95.2633 51.1004 94.9873 51.2137 94.7365 51.478C94.6612 51.5661 94.5358 51.6038 94.4229 51.6668C94.31 51.8052 94.1971 51.9437 94.0843 52.0947C94.0843 52.2583 94.147 52.4597 94.0843 52.5982C93.8208 53.1142 93.5324 53.6177 93.2313 54.1211C93.1686 54.2344 93.0683 54.3099 92.9805 54.4106L95.1629 53.1268L95.1755 53.1016Z" fill="#E30613"/>
<path d="M102.651 48.8978C102.689 48.8097 102.726 48.709 102.777 48.6209C102.739 48.709 102.701 48.8097 102.651 48.8978Z" fill="#E30613"/>
<path d="M110.904 57.1167C110.942 56.9405 110.98 56.7643 111.042 56.5251C110.929 56.4748 110.766 56.3993 110.603 56.3363C110.515 56.2986 110.378 56.3112 110.352 56.2482C109.989 55.6693 109.474 55.9336 108.998 55.9713C109.023 56.0594 109.048 56.1475 109.073 56.2356L110.352 56.9656C110.541 57.016 110.729 57.0663 110.917 57.1167H110.904Z" fill="#E30613"/>
<path d="M100.456 56.3992C100.331 56.802 100.381 56.8775 100.77 56.802L101.811 55.0273C101.748 54.6245 101.598 54.3099 101.096 54.3854C100.933 54.6245 100.77 54.8637 100.607 55.1154C100.582 55.1909 100.557 55.279 100.531 55.3545C100.632 55.6314 100.795 55.8958 100.531 56.1601C100.506 56.2356 100.481 56.3111 100.456 56.3866V56.3992Z" fill="#E30613"/>
<path d="M128.026 78.614C128.138 78.5637 128.251 78.5008 128.352 78.4504C128.352 78.4253 128.352 78.4001 128.352 78.3749C128.427 78.2365 128.502 78.098 128.577 77.9596C128.628 77.884 128.678 77.8211 128.728 77.7456C126.809 76.3737 124.877 75.0144 122.958 73.6425C122.858 73.6928 122.745 73.7557 122.645 73.8061C121.566 75.3794 120.5 76.9527 119.421 78.5259C119.446 78.5763 119.471 78.614 119.484 78.6644C122.331 78.5008 125.166 78.7903 128.013 78.614H128.026Z" fill="#E30613"/>
<path d="M125.166 70.219C125.09 70.3323 124.99 70.4204 124.89 70.5085C125.015 70.6469 125.115 70.8357 125.266 70.9364C126.019 71.4399 126.784 71.9307 127.549 72.4216L127.775 72.5726C127.361 71.163 126.909 69.7659 126.407 68.394C125.993 69.0107 125.58 69.6149 125.166 70.2316V70.219Z" fill="#E30613"/>
<path d="M113.94 78.5259C114.442 78.5259 114.893 78.5259 115.144 77.9973C115.596 77.4561 116.072 77.4309 116.837 77.8715C117.352 76.7639 117.866 75.6437 118.367 74.5361C118.443 74.3725 118.531 74.1963 118.606 74.0326C118.882 73.3907 119.145 72.7488 119.421 72.1195C118.932 72.0818 118.443 72.0566 117.954 72.0188C117.502 71.9685 117.214 72.1447 116.988 72.5475C116.913 72.6859 116.8 72.7992 116.687 72.9125L113.212 75.3416L112.811 76.0464C112.196 76.5751 111.481 76.852 110.716 77.0785C110.152 77.2421 109.625 77.5568 109.086 77.7959C108.772 78.0225 108.459 78.2365 108.145 78.463C108.659 78.4882 109.186 78.5259 109.7 78.5259C111.105 78.5259 112.51 78.5134 113.915 78.5259H113.94ZM116.448 73.1516C116.147 73.4663 115.846 73.7809 115.558 74.1082C115.157 74.6242 114.667 74.9892 113.977 75.0144L116.461 73.1642L116.448 73.1516Z" fill="#E30613"/>
<path d="M78.7192 107.424C78.8948 107.399 79.0704 107.374 79.246 107.336L79.4844 107.286L79.7854 107.198L78.7192 107.424Z" fill="#E30613"/>
<path d="M75.8469 108.041L78.7192 107.424C77.9165 107.55 77.1138 107.676 76.311 107.814C76.148 107.839 75.9974 107.965 75.8469 108.041Z" fill="#E30613"/>
<path d="M87.2735 107.16C87.1606 107.185 87.0477 107.198 86.9474 107.223C86.6213 107.273 86.5711 107.147 86.7091 106.87C86.7969 106.694 86.9474 106.317 86.9474 106.317C86.9474 106.317 86.0443 105.612 85.7433 105.398C85.4673 105.524 83.7489 106.254 83.1343 106.43C82.4319 106.631 81.717 106.757 81.002 106.921C80.8892 106.946 80.7888 106.971 80.6759 106.996L85.7433 105.398L79.7728 107.185L80.6759 106.996C80.2745 107.097 79.8732 107.185 79.4843 107.286L75.9472 108.343C76.4866 109.463 76.6747 110.659 76.7374 111.867C76.7751 112.673 76.6998 113.478 76.6747 114.284C76.6496 114.472 76.612 114.649 76.5869 114.837C76.4866 115.983 75.4832 118.236 75.2323 118.928C74.994 119.671 74.4672 121.055 74.6929 121.332C74.8309 121.496 77.3144 121.483 77.8412 121.47C78.3555 121.47 84.8903 121.521 85.4673 121.47C85.6178 121.47 87.4491 121.508 88.6156 121.433C88.6532 121.433 89.3807 121.395 89.5814 120.891C90.0078 119.847 90.7855 117.191 90.9611 116.423C91.0991 115.807 91.237 114.686 91.2872 113.818C91.4001 112.182 90.9987 110.659 90.0455 109.312C89.5814 108.645 89.0546 108.028 88.5529 107.386C88.4776 107.344 88.4776 107.344 88.5529 107.386C88.2769 107.323 88.0135 107.26 87.7376 107.198C87.5871 107.172 87.424 107.147 87.2735 107.122V107.16Z" fill="#E30613"/>
<path d="M94.8243 55.4175C94.9246 55.4175 95.0375 55.4175 95.1379 55.4175C95.1755 55.3672 95.2006 55.3168 95.2382 55.2791C95.2884 54.9015 95.3385 54.5239 95.4013 54.1463L92.5791 55.0273C92.6544 55.0273 92.7422 55.0273 92.8174 55.0273C93.4697 54.9141 94.0341 55.0651 94.4104 55.6567C94.5483 55.5811 94.6863 55.493 94.8243 55.4175Z" fill="#E30613"/>
<path d="M127.235 91.2885C126.056 91.5276 124.877 91.7794 123.686 91.9807C123.334 92.0437 123.046 92.1318 122.883 92.4716C122.795 92.6352 122.707 92.7863 122.619 92.9499C121.98 94.0701 121.328 95.1902 120.688 96.3104C120.374 96.8516 120.048 97.3803 119.735 97.9215C119.672 97.8711 119.622 97.8208 119.584 97.783C119.622 97.8208 119.684 97.8711 119.735 97.9215C119.057 98.2865 118.33 98.3872 117.577 98.3242C117.163 98.3242 117.151 98.3242 117.326 97.9089C117.489 97.5942 117.64 97.267 117.803 96.9523L117.903 96.7132C118.543 95.4294 119.195 94.1456 119.835 92.8618C119.358 92.9247 118.882 92.9876 118.405 93.0632C118.029 93.1261 117.652 93.2016 117.276 93.2771C115.859 93.554 114.454 93.8435 113.037 94.1204C111.77 94.3721 110.503 94.6113 109.224 94.8504C109.098 94.8756 108.96 94.8756 108.822 94.8756C108.559 94.9259 108.283 94.9763 108.02 95.0392C107.831 95.0644 107.643 95.0896 107.455 95.1273C105.812 95.442 104.169 95.7692 102.526 96.0839C101.899 96.2097 101.259 96.3104 100.632 96.4237C100.205 96.537 99.7663 96.6377 99.3398 96.751C99.2019 96.8768 99.0764 97.0027 98.9385 97.1411C98.9259 97.1411 98.9008 97.1411 98.8883 97.1411C98.9134 97.1411 98.9259 97.1411 98.951 97.1411C98.5998 97.8837 98.2486 98.6389 97.8974 99.3815C98.3615 99.4067 98.8256 99.4318 99.3273 99.457C99.3775 99.7465 99.1768 99.7717 98.9761 99.8094C97.8347 99.9856 96.7058 100.174 95.5644 100.351C95.4641 100.401 95.3512 100.439 95.1881 100.514C95.3763 100.539 106.264 108.809 110.716 112.194C110.804 112.232 110.955 112.32 111.118 112.496C111.394 112.71 111.632 112.887 111.845 113.05C111.858 113.05 111.883 113.075 111.895 113.088C112.058 113.201 112.209 113.302 112.372 113.415C112.685 113.667 112.999 113.919 113.313 114.158C113.4 114.233 113.513 114.271 113.614 114.347C113.689 114.41 113.777 114.485 113.814 114.573C113.827 114.611 113.752 114.749 113.714 114.749C113.601 114.749 113.476 114.749 113.388 114.686C113.062 114.472 112.736 114.233 112.384 113.982C112.184 114.309 111.996 114.334 111.745 114.095L106.866 114.9C106.866 114.9 105.16 115.328 104.721 115.114C104.294 114.9 90.1083 103.22 90.1083 103.22C89.8574 103.422 89.6191 103.648 89.3557 103.837C89.1926 103.963 88.5404 104.592 88.4024 104.806C88.5404 104.919 88.6784 105.033 88.8163 105.159C88.9794 105.373 89.1425 105.587 89.3055 105.801C89.3055 105.876 89.3055 105.964 89.3055 106.04C89.6316 106.379 89.9703 106.694 90.2588 107.059C92.2155 109.463 93.2189 112.157 92.7423 115.291C92.6796 115.681 92.5792 116.071 92.504 116.461C92.2406 117.606 91.5005 120.514 91.5005 120.514C91.4378 121.005 91.651 121.256 91.9395 121.282C91.9772 121.282 92.0022 121.282 92.0399 121.282C92.4663 121.332 93.7833 121.307 94.6237 121.168C95.3637 121.055 96.0661 120.766 96.618 120.237C96.6431 120.212 96.6682 120.174 96.6933 120.149C96.8689 119.872 97.0696 119.998 97.2201 120.149C97.6215 120.539 97.8598 121.017 97.9099 121.571C97.9476 121.936 97.7218 122.15 97.4082 122.301C96.6055 122.93 95.6773 123.258 94.6739 123.333C93.8711 123.396 93.0684 123.358 92.2656 123.358C92.2155 123.358 92.1528 123.358 92.1026 123.358C91.5256 123.358 90.9486 123.358 90.3591 123.371C89.3808 123.384 88.4024 123.421 87.4366 123.421C85.0786 123.434 82.733 123.434 80.375 123.447C80.375 123.472 76.6121 123.509 74.7432 123.509H67.8321C67.5687 123.509 65.8252 123.295 65.2231 123.182C64.1444 122.968 63.3417 122.44 62.9905 121.345C62.8525 120.866 62.1376 118.978 62.4511 118.626C62.8274 118.223 63.279 118.387 63.718 118.525C64.3326 118.727 64.8092 118.865 65.0977 119.406C65.1479 119.507 65.0977 119.671 65.0977 119.809C65.0726 119.859 65.0601 120.778 65.4238 120.929C65.9632 121.294 66.7283 121.307 67.3303 121.345C69.0863 121.47 70.1274 121.483 71.6953 121.445C72.335 121.47 72.5733 121.017 72.6485 120.917C72.7614 120.703 72.8743 120.501 72.9872 120.287C73.3258 119.532 74.5425 116.109 74.7056 115.228C74.8937 114.221 75.0191 113.201 75.1697 112.182C75.1697 110.873 74.8812 109.639 74.392 108.431C74.3418 108.305 74.2666 108.204 74.2039 108.091C74.0157 108.116 73.5265 108.142 73.3384 108.167C71.896 108.23 70.742 108.28 69.2996 108.343C67.3053 108.393 65.3486 108.066 63.4044 107.751C62.2003 107.55 61.0087 107.349 59.8046 107.147C59.0646 107.021 58.3245 106.883 57.572 106.782C57.3964 106.757 57.1957 106.858 57.0075 106.908C56.7943 106.933 56.5811 106.958 56.3678 106.984C56.2549 107.185 56.1295 107.386 56.0543 107.6C56.0292 107.663 56.1044 107.764 56.1295 107.852C56.1044 107.991 56.0919 108.129 56.0668 108.267C56.0292 108.318 55.979 108.406 55.9414 108.406C55.54 108.343 55.1386 108.255 54.7373 108.179C54.4613 108.305 54.3735 108.116 54.3861 107.928C54.3861 107.663 54.5491 107.512 54.8376 107.613C55.1972 107.722 55.4522 107.605 55.6027 107.261C55.6654 107.109 55.7281 106.971 55.7909 106.82C55.4146 106.556 55.0383 106.279 54.6745 106.014C54.2105 105.926 53.7464 105.838 53.2697 105.775C53.044 105.75 52.8056 105.775 52.5799 105.775C52.4294 106.065 52.2788 106.342 52.1158 106.656C51.8524 106.656 51.8022 106.455 51.8649 106.228C51.9151 106.04 52.028 105.863 52.1158 105.687C51.7646 105.561 51.4259 105.423 51.0747 105.31C50.849 105.234 50.6106 105.196 50.3849 105.146C48.4282 104.831 46.484 104.529 44.5273 104.202C42.9218 103.938 41.3163 103.636 39.7109 103.384C39.4725 103.346 39.159 103.422 38.9708 103.573C38.5694 103.9 38.2182 103.812 37.7792 103.535C38.5193 103.006 39.2342 102.503 39.9366 101.999C40.3882 101.471 40.915 101.509 41.4919 101.748C41.7303 101.811 41.9686 101.861 42.2069 101.924C42.2194 101.886 42.232 101.861 42.2571 101.823C41.9937 101.647 41.7553 101.446 41.4794 101.295C41.1157 101.081 40.9526 100.791 41.0028 100.376C41.0279 100.149 41.0529 99.9227 41.0404 99.6961C41.0404 99.5829 40.9651 99.4696 40.9275 99.3563C40.7394 99.5955 40.5512 99.8346 40.338 100.049C40.2377 100.149 40.0746 100.187 39.9366 100.263C39.899 100.212 39.8614 100.149 39.8237 100.099C40.0746 99.8472 40.338 99.608 40.5889 99.3563C40.5638 99.2556 40.5387 99.1424 40.5136 99.0417C40.3129 99.0542 40.1248 99.0668 39.9241 99.092C39.3346 99.1675 39.184 99.0039 39.3095 98.4123C38.7074 97.9467 38.0928 97.481 37.4782 97.0404C37.403 96.9901 37.265 97.0153 37.1521 97.0027C37.0518 97.1537 36.9514 97.2922 36.8009 97.4935C36.525 97.2041 36.2616 96.9398 35.9982 96.6629C35.6093 96.5873 35.2205 96.4866 35.0323 96.9901C35.1703 97.2041 35.3334 97.418 35.4713 97.6572C35.509 97.7327 35.509 97.8963 35.4588 97.9341C35.3835 97.997 35.2079 98.0348 35.1578 97.9844C34.8944 97.7453 34.6435 97.481 34.4177 97.2041C34.3676 97.1411 34.4679 96.9398 34.5306 96.8391C34.6435 96.6754 34.7815 96.537 34.8317 96.4741C34.4805 96.1091 34.2045 95.8196 33.916 95.5175C33.5648 95.5804 33.2889 95.5175 33.2011 95.1021C33.2262 94.8378 33.2513 94.5735 33.2763 94.3092C33.2136 94.2966 33.1635 94.2714 33.1007 94.2589C33.0506 94.2589 33.0129 94.2589 32.9628 94.2463C32.8624 94.3218 32.7621 94.4477 32.6617 94.4602C32.4736 94.4728 32.2729 94.4225 32.0722 94.3973C31.4827 94.3721 30.8932 94.347 30.3037 94.3218C29.4006 94.2211 28.4849 94.2211 27.6069 94.0071C26.6662 93.7806 26.0265 93.1009 25.7255 92.1695C25.6502 91.6409 25.5624 91.0997 25.4872 90.5711C25.4621 90.4704 25.437 90.3571 25.4119 90.2564C25.4621 89.7781 25.6252 89.6145 26.0642 89.7026C26.6411 89.8159 27.2056 89.9795 27.4941 90.5711L27.4313 91.0619C27.5317 91.578 27.9581 91.6409 28.3721 91.7038C28.3721 91.8045 28.3721 91.9052 28.3721 92.0059C28.3721 92.0563 28.3721 92.1192 28.3721 92.1695C28.4849 92.2199 28.5978 92.308 28.7107 92.3206C29.4382 92.4213 30.1657 92.4968 30.8932 92.5849C30.9434 92.5849 30.9935 92.6226 31.0437 92.6352C31.2569 92.6352 31.4576 92.6352 31.6708 92.6352C31.9593 92.6352 32.2478 92.6352 32.5238 92.6352H31.6708C32.022 92.5975 32.3858 92.5723 32.7746 92.5345C32.0346 91.4899 31.5454 90.3571 31.3698 89.1236C31.144 87.5629 31.2318 86.0148 31.8214 84.5171C32.5489 82.7046 33.3014 80.8922 34.4679 79.3315C35.2957 78.2113 36.249 77.1667 37.2023 76.1346C38.0176 75.241 38.9081 74.4103 39.7736 73.5544C39.899 73.4285 40.0495 73.3404 40.1875 73.2397C40.3756 73.0509 40.5763 72.8747 40.7645 72.6859C41.8557 71.8049 42.9595 70.9239 44.0507 70.0302C44.3141 69.8163 44.5775 69.6149 44.8534 69.4009C44.4521 69.0863 44.0507 68.759 43.6493 68.4444C43.3107 68.2807 43.3358 67.9661 43.4612 67.7269C43.6619 67.3619 43.7497 66.9969 43.7371 66.5942C43.8124 66.3298 43.9002 66.053 43.9754 65.7886C44.0131 65.7509 44.0507 65.7131 44.0883 65.6754C44.3475 65.3397 44.6569 65.2936 45.0165 65.5369C45.8318 65.7131 46.6345 65.9019 47.4498 66.0781C48.0143 66.2166 48.5787 66.355 49.1431 66.4935C49.5319 66.2921 49.9333 66.0907 50.3222 65.8893C50.4852 65.8012 50.6483 65.7131 50.7988 65.625L51.2754 65.1467C51.3381 65.0335 51.3632 64.8447 51.4636 64.8069C51.8398 64.6307 52.2412 64.4922 52.6426 64.3286L53.5206 63.9259C53.8969 63.7622 54.2606 63.5734 54.6495 63.4476C54.9003 63.3595 55.0383 63.2462 55.0007 62.9693C54.9756 62.6672 54.9505 62.3652 54.9254 62.0631C55.0257 62.0127 55.1261 61.975 55.3393 61.8743C55.3895 62.2896 55.4271 62.6672 55.4647 63.0448C55.841 62.9441 56.2048 62.8309 56.5811 62.7302C58.4374 62.1764 60.369 61.9624 62.2881 61.7736C64.9096 61.7233 67.5059 61.824 69.9894 62.7553C70.0772 62.7805 70.1525 62.7931 70.2403 62.8183C70.3281 62.7428 70.4034 62.6672 70.4912 62.5917C70.4661 62.5414 70.4284 62.4784 70.4034 62.4281C70.3783 62.2141 70.3532 62.0002 70.3281 61.7736C70.5162 61.61 70.7044 61.4589 70.8925 61.2953C71.1308 61.3205 71.3064 61.4212 71.2939 61.6981C71.3817 61.7233 71.457 61.761 71.5448 61.7862C72.0716 61.3583 72.5356 61.6352 72.9997 61.9121C73.1377 61.9876 73.2631 62.0883 73.4011 62.1764C73.6143 61.9246 73.8903 61.7107 74.0157 61.4338C74.2917 60.8045 74.8059 60.666 75.3954 60.6534C75.6337 60.4898 75.8846 60.3262 76.1229 60.1751C76.3863 59.8353 76.7124 59.6088 77.164 59.6339C77.8915 59.6339 78.6315 59.6339 79.359 59.6339C79.4593 59.6339 79.5597 59.6717 79.6726 59.6969C80.0238 59.6969 80.375 59.7346 80.7136 59.6969C81.3282 59.6339 81.8299 59.8227 82.2689 60.2381C82.5323 60.4772 82.8334 60.6786 83.1219 60.9052C83.3853 61.0939 83.6612 61.2827 83.9121 61.4967C84.1253 61.6855 84.3385 61.7358 84.5768 61.5722C85.0284 61.4338 85.4799 61.2827 85.9315 61.1443C86.5335 61.1317 87.1231 61.0939 87.7251 61.1065C88.1516 61.1065 88.578 61.1946 89.0045 61.245C89.1048 61.245 89.2177 61.245 89.3181 61.2324C89.7571 60.3765 90.2086 59.5207 90.6476 58.6522C90.7103 58.5263 90.7856 58.4005 90.8608 58.2746C91.049 57.897 91.2371 57.5194 91.4253 57.1544C91.3751 56.8146 91.4253 56.4748 91.7012 56.2482C91.8392 56.1475 92.065 56.1349 92.2406 56.1224C92.2656 56.1224 92.3158 56.2734 92.3534 56.3489C92.8928 56.6258 93.4447 56.8901 93.984 57.167C93.984 57.0789 93.984 57.0034 93.984 56.9153C93.7206 56.7139 93.4572 56.5251 93.1938 56.3237L92.6796 56.1979C92.3158 55.9461 91.9395 55.707 91.6009 55.4427C91.5131 55.3798 91.4503 55.1658 91.5005 55.0777C91.5883 54.9141 91.6887 54.6498 91.9772 54.826C92.1402 54.5994 92.3158 54.3729 92.4914 54.1463C92.5667 54.0456 92.6294 53.9575 92.7046 53.8694C93.0809 53.1268 93.4572 52.3842 93.846 51.629C93.9213 51.5158 93.984 51.4025 94.0593 51.2892L94.1596 50.9871L94.0969 50.8361C93.984 50.8864 93.8711 50.9368 93.7582 50.9871C93.0308 51.0375 92.6545 50.7354 92.5165 50.0306C92.4789 49.867 92.3409 49.6782 92.1904 49.5775C91.8643 49.3635 91.5131 49.2251 91.1744 49.0363C91.0239 48.9482 90.911 48.7971 90.773 48.6713C90.3215 48.5076 89.8699 48.3566 89.4184 48.193C89.4184 48.193 89.3682 48.1804 89.3431 48.1804C88.9041 48.1175 88.7536 48.4825 88.5279 48.7468C88.2895 48.9859 88.0512 49.2251 87.8129 49.4768C87.3237 49.3132 86.8471 49.1621 86.3579 48.9985C85.2416 48.6209 84.1378 48.2433 83.0215 47.8657C81.692 47.4126 80.375 46.9469 79.0454 46.4812C78.8824 46.4183 78.7318 46.3428 78.5688 46.2799C77.6782 45.9778 76.8002 45.6757 75.9097 45.3736C74.9439 45.0212 73.9781 44.6814 73.0123 44.329C71.2814 43.6871 69.5504 43.0452 67.8195 42.4159C66.8788 42.076 65.9255 41.7614 64.9723 41.4341C64.9472 41.4593 64.9096 41.4845 64.8845 41.5097C64.7214 41.5348 64.5458 41.6103 64.4078 41.5726C62.2379 40.8803 60.0805 40.1755 57.9106 39.4833C57.4591 39.3322 56.995 39.1812 56.5434 39.0301C55.2766 38.6274 53.9972 38.2372 52.7304 37.7967C52.4921 37.7086 52.3039 37.4443 52.1283 37.2303C51.9151 36.9534 51.6392 36.815 51.313 36.7017C50.0588 36.2863 48.8045 35.8458 47.5627 35.4179C46.7223 35.1284 45.8694 34.8389 45.0165 34.5494C42.9469 33.832 40.8899 33.1272 38.8328 32.3846C38.4691 32.2587 38.1555 31.9692 37.8294 31.7427C15.4654 42.1138 0 64.7817 0 91.0871C0 127.235 29.1999 156.536 65.2231 156.536C101.246 156.536 130.446 127.235 130.446 91.0871C130.446 90.9487 130.446 90.8102 130.446 90.6718C129.38 90.8731 128.314 91.0871 127.248 91.2885H127.235Z" fill="#E30613"/>
<path d="M87.7126 104.227C87.8632 104.278 87.9886 104.454 88.1516 104.454C87.9886 104.454 87.8632 104.29 87.7126 104.227Z" fill="#E30613"/>
<path d="M102.049 62.0001C103.416 61.8743 104.796 61.7358 106.163 61.61C107.731 61.6351 109.261 61.8869 110.754 62.3526C111.193 62.491 111.607 62.705 112.033 62.8812C112.635 63.07 113.263 63.1958 113.714 63.6867C114.04 63.8252 114.391 63.9258 114.68 64.1272C115.144 64.4545 115.57 64.8446 116.022 65.2097C116.147 65.3103 116.26 65.4236 116.373 65.5369C116.787 65.8893 117.289 65.8138 117.753 65.7257C118.706 65.5243 119.659 65.2852 120.588 65.0209C121.027 64.895 121.378 64.9453 121.767 65.1719C122.657 65.7005 123.297 66.4809 123.924 67.2864C124.388 66.7326 124.865 66.1788 125.329 65.6124C125.166 65.2348 124.99 64.8698 124.827 64.4922C124.739 64.4419 124.652 64.379 124.564 64.3286C123.949 63.951 123.335 63.586 122.72 63.2084C122.306 62.9441 121.892 62.6546 121.466 62.4155C121.265 62.3022 121.027 62.2896 120.801 62.2393C120.713 62.1889 120.638 62.126 120.55 62.0757C120.124 61.8617 119.697 61.6477 119.258 61.4338L116.285 60.15C116.235 60.0744 116.185 59.9863 116.122 59.9108C115.984 59.9863 115.859 60.0493 115.671 60.1374C115.52 59.9737 115.37 59.8101 115.232 59.6339C115.144 59.5206 115.081 59.3444 114.968 59.2941C114.479 59.0927 113.978 58.9417 113.476 58.7655C113.426 58.778 113.363 58.7906 113.313 58.8032C112.962 59.1934 112.61 58.9543 112.259 58.8032C112.021 58.7403 111.783 58.6018 111.594 58.9039C111.557 58.9668 111.318 58.9794 111.206 58.9291C110.93 58.8032 110.691 58.6018 110.415 58.4886C110.077 58.3501 110.014 58.1739 110.252 57.897C109.424 57.4942 108.609 57.0915 107.781 56.6887C107.593 56.588 107.393 56.4873 107.204 56.3866C106.828 56.2985 106.452 56.2104 106.063 56.1475C105.762 56.0972 105.448 56.1223 105.473 55.6441C105.473 55.5308 105.273 55.3546 105.122 55.2791C104.984 55.2035 104.796 55.2035 104.633 55.1784C104.307 55.1532 103.981 55.128 103.667 55.1028C103.429 55.1028 103.191 55.1028 102.952 55.1028C102.727 55.2791 102.513 55.4678 102.288 55.6441C102.124 55.858 101.974 56.072 101.811 56.2985C101.811 56.3992 101.836 56.5125 101.798 56.6006C101.548 57.1041 101.284 57.5824 101.033 58.0858C100.996 58.3124 100.92 58.5389 100.908 58.7655C100.908 59.2563 100.532 59.4074 100.193 59.5836C100.268 60.0744 100.745 59.9737 101.033 60.1374C101.146 60.2003 101.284 60.2506 101.41 60.301V60.6408C101.472 60.7919 101.548 60.9555 101.61 61.1065C101.46 61.1569 101.309 61.2072 101.171 61.2701C101.083 61.3079 101.008 61.3708 100.933 61.4212C101.008 61.7107 100.895 61.8995 100.607 61.9876C100.582 62.0882 100.557 62.2015 100.532 62.3022C100.544 62.3777 100.557 62.4532 100.569 62.4784C101.071 62.3022 101.56 62.1386 102.049 61.975V62.0001Z" fill="#E30613"/>
<path d="M52.5423 105.385C51.9277 105.222 51.3131 105.07 50.6985 104.907L52.5423 105.385Z" fill="#E30613"/>
<path d="M94.1094 45.8897C94.1094 45.8897 94.1972 45.8897 94.2474 45.8897C94.0467 45.3988 93.846 44.9079 93.6454 44.4171C93.6328 44.3919 93.5325 44.3919 93.4698 44.3793C93.3192 44.3793 93.1186 44.4674 93.0433 44.3919C92.8175 44.2031 92.7423 43.9388 92.9179 43.6619C93.0057 43.234 93.106 42.8186 93.1687 42.3907C93.1938 42.2396 93.1562 42.076 93.1436 41.925C92.9806 41.6733 92.8301 41.4215 92.667 41.1824C92.5667 41.1446 92.4663 41.1195 92.366 41.0817C91.9144 40.4776 91.4629 39.8734 91.0113 39.2693C90.6727 38.8162 90.334 38.3505 89.9954 37.8974C89.8072 37.3813 89.3181 37.2303 88.8916 37.0037C88.0638 36.5758 87.2234 36.173 86.3956 35.7703C86.1823 35.6696 85.9691 35.5815 85.7433 35.4808C85.0785 35.2291 84.4263 34.9773 83.7615 34.7382C83.7615 34.6879 83.7615 34.6375 83.7615 34.5872C83.7114 34.4613 83.6487 34.3354 83.5985 34.2096C83.5609 34.1089 83.5483 33.983 83.4981 33.8949C83.3351 33.5929 83.172 33.2908 83.009 32.9887C82.5825 32.3846 82.131 31.7804 81.7296 31.1511C80.8767 29.817 80.0363 28.4828 79.1834 27.1487C74.693 26.1669 70.0271 25.6383 65.2357 25.6383C57.8228 25.6383 50.6984 26.8969 44.0632 29.1876C45.8067 29.8044 47.5627 30.4211 49.3062 31.0504C49.7703 31.214 50.2343 31.3777 50.711 31.5413C51.7646 31.8937 52.8182 32.2461 53.8592 32.6111C56.1797 33.4292 58.5001 34.2473 60.808 35.078C63.0407 35.8836 65.2733 36.7268 67.5059 37.545C68.7728 38.0106 70.0396 38.4763 71.3064 38.942C73.3509 39.6846 75.408 40.4272 77.4525 41.1698C77.603 41.2202 77.7284 41.3208 77.8664 41.3964C78.2678 41.5096 78.6691 41.6103 79.0705 41.7236C79.8983 42.0131 80.7387 42.29 81.5665 42.5795C81.9177 42.7053 82.2564 42.869 82.6076 43.0074C83.0842 43.1333 83.5734 43.1962 84.0249 43.3724C85.6304 44.0017 87.2108 44.6688 88.8163 45.2981C89.7571 45.6631 90.7354 45.9652 91.6887 46.305C92.1653 46.4309 92.6545 46.5567 93.1311 46.6952C93.3318 46.6197 93.5199 46.5567 93.7833 46.4561C93.846 46.3176 93.4321 45.8142 94.0969 45.8897H94.1094Z" fill="#E30613"/>
<path d="M65.2231 137.367C90.6946 137.367 111.343 116.647 111.343 91.0871C111.343 65.5275 90.6946 44.8073 65.2231 44.8073C39.7515 44.8073 19.1028 65.5275 19.1028 91.0871C19.1028 116.647 39.7515 137.367 65.2231 137.367Z" fill="white"/>
<path d="M74.6805 121.345C74.8185 121.508 77.302 121.496 77.8288 121.483C78.343 121.483 84.8779 121.533 85.4549 121.483C85.6054 121.483 87.4366 121.521 88.6031 121.445C88.6408 121.445 89.3683 121.408 89.5689 120.904C89.9954 119.859 90.7731 117.204 90.9487 116.436C91.0866 115.819 91.2246 114.699 91.2748 113.831C91.3876 112.194 90.9863 110.671 90.033 109.325C89.5689 108.658 89.0421 108.041 88.5404 107.399C88.4652 107.357 88.4652 107.357 88.5404 107.399C88.2645 107.336 88.0011 107.273 87.7251 107.21C87.5746 107.185 87.4116 107.16 87.261 107.135C87.1482 107.16 87.0353 107.172 86.9349 107.198C86.6088 107.248 86.5586 107.122 86.6966 106.845C86.7844 106.669 86.9349 106.291 86.9349 106.291C86.9349 106.291 86.0318 105.587 85.7308 105.373C85.4549 105.498 83.7365 106.228 83.1219 106.405C82.4195 106.606 81.7045 106.732 80.9896 106.896C80.8767 106.921 80.7763 106.946 80.6635 106.971L85.7308 105.373L79.7604 107.16L80.6635 106.971C80.2621 107.072 79.8607 107.16 79.4719 107.261L75.9348 108.318C76.4741 109.438 76.6623 110.634 76.725 111.842C76.7626 112.647 76.6874 113.453 76.6623 114.258C76.6372 114.447 76.5996 114.623 76.5745 114.812C76.4741 115.958 75.4707 118.211 75.2198 118.903C74.9815 119.645 74.4547 121.03 74.6805 121.307V121.345Z" fill="#004D9D"/>
<path d="M78.7195 107.424C78.8951 107.399 79.0707 107.374 79.2463 107.336L79.4846 107.286L79.7856 107.198L78.7195 107.424Z" fill="#004D9D"/>
<path d="M90.0957 61.975C90.2211 61.9246 90.334 61.8869 90.4469 61.8491C90.2462 61.6729 90.0455 61.4967 89.8448 61.3205C89.8072 61.396 89.7696 61.4589 89.7319 61.5345C89.7445 61.5596 89.757 61.5848 89.7821 61.61C89.9075 61.7484 90.0455 61.8995 90.1082 61.975H90.0957Z" fill="#004D9D"/>
<path d="M72.9747 61.8995C73.1127 61.975 73.2381 62.0757 73.3761 62.1638C73.5893 61.9121 73.8653 61.6981 73.9907 61.4212C74.2666 60.7919 74.7809 60.6534 75.3704 60.6409C75.6087 60.4772 75.8596 60.3136 76.0979 60.1626C76.3613 59.8227 76.6874 59.5962 77.139 59.6214C77.8665 59.6214 78.6065 59.6214 79.334 59.6214C79.4343 59.6214 79.5347 59.6591 79.6475 59.6843C79.9987 59.6843 80.35 59.7221 80.6886 59.6843C81.3032 59.6214 81.8049 59.8102 82.2439 60.2255C82.5073 60.4646 82.8084 60.666 83.0968 60.8926C83.3602 61.0814 83.6362 61.2702 83.887 61.4841C84.1003 61.6729 84.3135 61.7233 84.5518 61.5597C85.0034 61.4212 85.4549 61.2702 85.9065 61.1317C86.5085 61.1191 87.098 61.0814 87.7001 61.094C88.1266 61.094 88.553 61.1821 88.9795 61.2324C89.0798 61.2324 89.1927 61.2324 89.293 61.2198L89.4185 60.9807C82.8084 55.6315 74.4046 52.422 65.2483 52.422C44.3643 52.422 27.3687 69.0988 26.729 89.8914C27.0426 90.0173 27.306 90.2187 27.4816 90.5711L27.4189 91.062C27.5192 91.578 27.9457 91.6409 28.3596 91.7039C28.3596 91.8046 28.3596 91.9052 28.3596 92.0059C28.3596 92.0563 28.3596 92.1192 28.3596 92.1696C28.4725 92.2199 28.5854 92.308 28.6982 92.3206C29.4257 92.4213 30.1532 92.4968 30.8807 92.5849C30.9309 92.5849 30.9811 92.6227 31.0312 92.6352C31.2445 92.6352 31.4451 92.6352 31.6584 92.6352C31.9469 92.6352 32.2353 92.6352 32.5113 92.6352H31.6584C32.0096 92.5975 32.3733 92.5723 32.7621 92.5346C32.0221 91.4899 31.5329 90.3571 31.3573 89.1237C31.1316 87.563 31.2194 86.0149 31.8089 84.5171C32.5364 82.7047 33.2889 80.8922 34.4554 79.3315C35.2833 78.2113 36.2365 77.1667 37.1898 76.1346C38.0051 75.241 38.8956 74.4103 39.7611 73.5544C39.8865 73.4285 40.037 73.3404 40.175 73.2397C40.3631 73.051 40.5638 72.8747 40.752 72.686C41.8432 71.8049 42.947 70.9239 44.0382 70.0302C44.3016 69.8163 44.565 69.6149 44.841 69.4009C44.4396 69.0863 44.0382 68.759 43.6368 68.4444C43.2982 68.2807 43.3233 67.9661 43.4487 67.7269C43.6494 67.3619 43.7372 66.9969 43.7246 66.5942C43.7999 66.3299 43.8877 66.053 43.963 65.7887C44.0006 65.7509 44.0382 65.7131 44.0758 65.6754C44.3351 65.3397 44.6445 65.2936 45.004 65.5369C45.8193 65.7131 46.6221 65.9019 47.4373 66.0781C48.0018 66.2166 48.5662 66.355 49.1306 66.4935C49.5195 66.2921 49.9208 66.0907 50.3097 65.8893C50.4727 65.8012 50.6358 65.7131 50.7863 65.625L51.2629 65.1467C51.3257 65.0335 51.3507 64.8447 51.4511 64.8069C51.8274 64.6307 52.2287 64.4923 52.6301 64.3286L53.5081 63.9259C53.8844 63.7623 54.2482 63.5735 54.637 63.4476C54.8878 63.3595 55.0258 63.2462 54.9882 62.9693C54.9631 62.6672 54.938 62.3652 54.9129 62.0631C55.0133 62.0128 55.1136 61.975 55.3268 61.8743C55.377 62.2897 55.4146 62.6672 55.4523 63.0448C55.8286 62.9441 56.1923 62.8309 56.5686 62.7302C58.4249 62.1764 60.3565 61.9624 62.2756 61.7736C64.8971 61.7233 67.4935 61.824 69.977 62.7554C70.0648 62.7805 70.14 62.7931 70.2278 62.8183C70.3156 62.7428 70.3909 62.6672 70.4787 62.5917C70.4536 62.5414 70.416 62.4785 70.3909 62.4281C70.3658 62.2141 70.3407 62.0002 70.3156 61.7736C70.5038 61.61 70.6919 61.459 70.88 61.2953C71.1184 61.3205 71.294 61.4212 71.2814 61.6981C71.3692 61.7233 71.4445 61.761 71.5323 61.7862C72.0591 61.3583 72.5232 61.6352 72.9873 61.9121L72.9747 61.8995Z" fill="#004D9D"/>
<path d="M75.8469 108.041L78.7192 107.424C77.9165 107.55 77.1138 107.676 76.311 107.814C76.148 107.839 75.9974 107.965 75.8469 108.041Z" fill="#004D9D"/>
<path d="M102.526 96.0839C101.899 96.2097 101.259 96.3104 100.632 96.4237C100.205 96.537 99.7664 96.6377 99.3399 96.7509C99.202 96.8768 99.0765 97.0027 98.9386 97.1411C98.926 97.1411 98.9009 97.1411 98.8884 97.1411C98.9135 97.1411 98.926 97.1411 98.9511 97.1411C98.5999 97.8837 98.2487 98.6389 97.8975 99.3815C98.3616 99.4066 98.8257 99.4318 99.3274 99.457C99.3776 99.7465 99.1769 99.7717 98.9762 99.8094C97.8348 99.9856 96.7059 100.174 95.5645 100.351C95.4642 100.401 95.3513 100.439 95.1882 100.514C95.276 100.527 97.9728 102.541 101.209 104.982C102.313 102.1 103.078 99.0668 103.479 95.9077C103.166 95.9706 102.852 96.0335 102.538 96.0965L102.526 96.0839Z" fill="#004D9D"/>
<path d="M52.5423 105.385C51.9277 105.222 51.3131 105.07 50.6985 104.907L52.5423 105.385Z" fill="#004D9D"/>
<path d="M80.3626 123.447C80.3626 123.447 76.5997 123.509 74.7308 123.509H67.8197C67.5563 123.509 65.8128 123.296 65.2108 123.182C64.1321 122.968 63.3293 122.44 62.9781 121.345C62.8402 120.866 62.1252 118.978 62.4388 118.626C62.8151 118.223 63.2666 118.387 63.7056 118.525C64.3202 118.727 64.7969 118.865 65.0853 119.406C65.1355 119.507 65.0853 119.671 65.0853 119.809C65.0603 119.859 65.0477 120.778 65.4115 120.929C65.9508 121.294 66.7159 121.307 67.318 121.345C69.074 121.47 70.1151 121.483 71.6829 121.445C72.3226 121.47 72.5609 121.017 72.6362 120.917C72.7491 120.703 72.8619 120.501 72.9748 120.287C73.3135 119.532 74.5301 116.109 74.6932 115.228C74.8814 114.221 75.0068 113.201 75.1573 112.182C75.1573 110.873 74.8688 109.639 74.3796 108.431C74.3295 108.305 74.2542 108.205 74.1915 108.091C74.0034 108.116 73.5142 108.142 73.326 108.167C71.8836 108.23 70.7297 108.28 69.2872 108.343C67.2929 108.393 65.3362 108.066 63.3921 107.751C62.1879 107.55 60.9964 107.349 59.7922 107.147C59.0522 107.021 58.3122 106.883 57.5596 106.782C57.384 106.757 57.1833 106.858 56.9952 106.908C56.7819 106.933 56.5687 106.958 56.3555 106.984C56.2426 107.185 56.1172 107.386 56.0419 107.6C56.0168 107.663 56.0921 107.764 56.1172 107.852C56.0921 107.991 56.0795 108.129 56.0544 108.267C56.0168 108.318 55.9666 108.406 55.929 108.406C55.5276 108.343 55.1263 108.255 54.7249 108.179C54.449 108.305 54.3612 108.116 54.3737 107.928C54.3737 107.663 54.5368 107.512 54.8252 107.613C55.1848 107.722 55.4398 107.605 55.5904 107.261C55.6531 107.11 55.7158 106.971 55.7785 106.82C55.4022 106.556 55.0259 106.279 54.6622 106.015C54.1981 105.926 53.734 105.838 53.2574 105.775C53.0316 105.75 52.7933 105.775 52.5675 105.775C52.417 106.065 52.2665 106.342 52.1034 106.656C51.84 106.656 51.7899 106.455 51.8526 106.228C51.9027 106.04 52.0156 105.863 52.1034 105.687C51.7522 105.561 51.4136 105.423 51.0624 105.31C50.8366 105.234 50.5983 105.196 50.3725 105.146C48.4158 104.831 46.4717 104.529 44.515 104.202C42.9095 103.938 41.304 103.636 39.6985 103.384C39.4602 103.346 39.1466 103.422 38.9585 103.573C38.5571 103.9 38.2059 103.812 37.7669 103.535C38.5069 103.006 39.2219 102.503 39.9243 101.999C40.3758 101.471 40.9026 101.509 41.4796 101.748C41.7179 101.811 41.9562 101.861 42.1945 101.924C42.2071 101.886 42.2196 101.861 42.2447 101.823C41.9813 101.647 41.743 101.446 41.467 101.295C41.1033 101.081 40.9402 100.791 40.9904 100.376C41.0155 100.149 41.0406 99.9227 41.028 99.6962C41.028 99.5829 40.9528 99.4696 40.9152 99.3564C40.727 99.5955 40.5389 99.8346 40.3256 100.049C40.2253 100.149 40.0622 100.187 39.9243 100.263C39.8866 100.212 39.849 100.149 39.8114 100.099C40.0622 99.8472 40.3256 99.6081 40.5765 99.3564C40.5514 99.2557 40.5263 99.1424 40.5012 99.0417C40.3006 99.0543 40.1124 99.0669 39.9117 99.092C39.3222 99.1676 39.1717 99.0039 39.2971 98.4124C38.6951 97.9467 38.0805 97.481 37.4659 97.0405C37.3906 96.9901 37.2526 97.0153 37.1397 97.0027C37.0394 97.1537 36.9391 97.2922 36.7885 97.4936C36.5126 97.2041 36.2492 96.9398 35.9858 96.6629C35.597 96.5874 35.2081 96.4867 35.02 96.9901C35.158 97.2041 35.321 97.4181 35.459 97.6572C35.4966 97.7327 35.4966 97.8963 35.4464 97.9341C35.3712 97.997 35.1956 98.0348 35.1454 97.9844C34.882 97.7453 34.6312 97.481 34.4054 97.2041C34.3552 97.1412 34.4556 96.9398 34.5183 96.8391C34.6312 96.6755 34.7691 96.537 34.8193 96.4741C34.4681 96.1091 34.1922 95.8196 33.9037 95.5175C33.5525 95.5805 33.2765 95.5175 33.1887 95.1022C33.2138 94.8379 33.2389 94.5736 33.264 94.3092C33.2013 94.2967 33.1511 94.2715 33.0884 94.2589C33.0382 94.2589 33.0006 94.2589 32.9504 94.2463C32.8501 94.3218 32.7497 94.4477 32.6494 94.4603C32.4612 94.4729 32.2605 94.4225 32.0599 94.3973C31.4703 94.3722 30.8808 94.347 30.2913 94.3218C29.3882 94.2211 28.4726 94.2211 27.5946 94.0072C27.281 93.9317 27.0302 93.7932 26.7793 93.6296C28.0838 113.805 44.7909 129.777 65.2359 129.777C73.0501 129.777 80.3124 127.436 86.3832 123.434C84.3763 123.434 82.3695 123.447 80.3752 123.459L80.3626 123.447Z" fill="#004D9D"/>
<path d="M90.0833 103.22C89.8324 103.422 89.5941 103.648 89.3307 103.837C89.1676 103.963 88.5154 104.592 88.3774 104.806C88.5154 104.919 88.6534 105.033 88.7914 105.159C88.9544 105.373 89.1175 105.587 89.2805 105.801C89.2805 105.876 89.2805 105.964 89.2805 106.04C89.6066 106.379 89.9453 106.694 90.2338 107.059C92.1905 109.463 93.1939 112.157 92.7173 115.291C92.6546 115.681 92.5542 116.071 92.479 116.461C92.341 117.065 92.0651 118.16 91.8393 119.054C94.5235 116.486 96.8314 113.529 98.6877 110.281C94.6614 106.984 90.0833 103.233 90.0833 103.233V103.22Z" fill="#004D9D"/>
<path d="M87.7126 104.227C87.8632 104.278 87.9886 104.454 88.1516 104.454C87.9886 104.454 87.8632 104.29 87.7126 104.227Z" fill="#004D9D"/>
<path d="M47.0107 28.6214C47.0107 28.6214 47.0738 28.6087 47.1117 28.5961C47.0738 28.5961 47.0486 28.6087 47.0107 28.6214Z" fill="#1D1D1B"/>
<path d="M17.5852 46.7833C17.7106 46.6449 17.8361 46.519 17.974 46.3806C17.8486 46.519 17.7106 46.6449 17.5852 46.7833Z" fill="#1D1D1B"/>
<path d="M34.5933 29.9302C35.1577 30.2323 35.7222 30.5344 36.2866 30.8364C36.7758 31.1259 37.265 31.4154 37.7416 31.7049C37.8545 31.7804 37.9674 31.8685 38.0802 31.9566C40.1875 30.9875 42.3574 30.1316 44.5775 29.389C44.0381 29.2002 43.4988 29.0114 42.9594 28.8226C40.3129 27.8786 37.6663 26.9347 35.0072 26.0033C33.8031 25.5753 25.8258 22.0889 24.4837 22.3029C23.7939 22.3029 23.0915 22.3029 22.4016 22.3029C21.925 22.3029 21.4358 22.3029 20.9592 22.3029C20.8588 22.3029 20.771 22.3029 20.6331 22.3155C20.6832 22.391 20.6958 22.4288 20.7209 22.4539C20.8714 22.5924 32.2603 28.7345 34.5682 29.9554L34.5933 29.9302Z" fill="#1D1D1B"/>
<path d="M59.2151 26.2928C59.8297 26.2425 60.4568 26.1921 61.0714 26.1544C60.4443 26.1921 59.8297 26.2425 59.2151 26.2928Z" fill="#1D1D1B"/>
<path d="M0 91.4647C0 90.4578 0.0250858 89.4509 0.0752575 88.444C0.0250858 89.4509 0 90.4452 0 91.4647Z" fill="#1D1D1B"/>
<path d="M30.066 36.3492C30.066 36.3492 29.9903 36.3999 29.9524 36.4253C29.9903 36.3999 30.0281 36.3746 30.066 36.3492Z" fill="#1D1D1B"/>
<path d="M62.1753 26.0914C63.1787 26.041 64.1947 26.0159 65.2232 26.0159C64.2072 26.0159 63.1913 26.041 62.1753 26.0914Z" fill="#1D1D1B"/>
<path d="M92.2156 31.8811C92.2156 31.8811 92.3039 31.9191 92.3418 31.9318C92.3039 31.9064 92.2534 31.8938 92.2156 31.8811Z" fill="#1D1D1B"/>
<path d="M97.3831 34.5242C97.3831 34.5242 97.4588 34.5622 97.4966 34.5876C97.4588 34.5622 97.4209 34.5496 97.3831 34.5242Z" fill="#1D1D1B"/>
<path d="M94.8118 33.1398C94.8118 33.1398 94.9127 33.1905 94.9632 33.2158C94.9127 33.1905 94.8622 33.1651 94.8118 33.1398Z" fill="#1D1D1B"/>
<path d="M79.4467 27.5892C82.9587 28.3695 86.3578 29.4394 89.6315 30.7609C89.5688 30.6728 89.5061 30.5847 89.4434 30.4966C89.4183 30.4211 89.4057 30.3456 89.3556 30.2701C88.3271 28.6338 87.3111 26.9976 86.27 25.374C86.1948 25.2607 65.0976 0.0755178 64.9722 0C64.4955 0 61.6483 0 61.4351 0C61.5354 0.188795 78.0795 25.4369 78.1548 25.5502C78.5812 26.2299 79.0202 26.9095 79.4467 27.5892Z" fill="#1D1D1B"/>
<path d="M72.6736 26.4438C72.5732 26.4438 72.4729 26.4187 72.3726 26.4061C72.4729 26.4061 72.5732 26.4312 72.6736 26.4438Z" fill="#1D1D1B"/>
<path d="M69.3373 26.1543C69.1491 26.1543 68.9735 26.1166 68.7854 26.1166C68.9735 26.1166 69.1491 26.1418 69.3373 26.1543Z" fill="#1D1D1B"/>
<path d="M15.8418 48.7342C16.0049 48.5454 16.1679 48.3566 16.331 48.1804C16.1679 48.3692 16.0049 48.558 15.8418 48.7342Z" fill="#1D1D1B"/>
<path d="M56.3928 26.6201C56.8695 26.5571 57.3461 26.4942 57.8353 26.4313C57.3586 26.4816 56.882 26.5446 56.3928 26.6201Z" fill="#1D1D1B"/>
<path d="M116.813 51.4412C116.813 51.4412 116.737 51.3399 116.699 51.2892C116.737 51.3399 116.775 51.3905 116.813 51.4412Z" fill="#1D1D1B"/>
<path d="M118.556 53.8065C118.505 53.7309 118.443 53.6554 118.393 53.5673C118.443 53.6428 118.505 53.7184 118.556 53.8065Z" fill="#1D1D1B"/>
<path d="M0.125488 87.5755C0.17566 86.8204 0.225832 86.0526 0.301089 85.31C0.225832 86.0652 0.17566 86.8204 0.125488 87.5755Z" fill="#1D1D1B"/>
<path d="M0.36377 84.5045C0.464113 83.5353 0.589542 82.5662 0.727514 81.6096C0.576999 82.5662 0.464113 83.5353 0.36377 84.5045Z" fill="#1D1D1B"/>
<path d="M121.654 58.6522C121.654 58.6522 121.591 58.5263 121.553 58.476C121.591 58.5389 121.616 58.6018 121.654 58.6522Z" fill="#1D1D1B"/>
<path d="M185.021 92.7233C184.143 92.245 183.265 91.7541 182.387 91.2759H182.374C182.249 91.2004 182.123 91.1248 181.985 91.0619C179.665 89.8914 177.357 88.7209 175.036 87.5629C174.183 87.135 173.331 86.7448 172.465 86.3295C172.227 86.2162 172.001 86.1029 171.763 85.9896C171.085 85.6246 170.408 85.247 169.718 84.8946C168.815 84.4289 167.912 83.9758 167.009 83.5227C166.206 83.1199 165.403 82.7046 164.601 82.3018C164.525 82.2515 164.438 82.2011 164.362 82.1508C164.387 82.0375 164.413 81.9368 164.425 81.8236C164.488 81.6977 164.538 81.5592 164.601 81.4334C164.852 80.7663 165.09 80.0992 165.341 79.4322C165.454 79.4322 165.579 79.407 165.692 79.407C166.633 79.407 167.059 78.7147 166.633 77.8966C166.557 77.7582 166.482 77.6071 166.369 77.4939C166.169 77.2799 166.181 77.0785 166.231 76.8016C166.482 75.5178 166.708 74.234 166.934 72.9502C167.009 72.409 167.097 71.8804 167.172 71.3392C167.222 70.9616 167.272 70.584 167.322 70.2064C167.322 70.1057 167.348 70.005 167.36 69.8917C167.473 69.8162 167.624 69.7785 167.711 69.6778C168.113 69.1995 168.489 68.7086 168.878 68.2178C170.057 66.7703 171.223 65.3229 172.402 63.8755C173.87 62.0756 175.312 60.2758 176.792 58.4885C177.068 58.1487 176.993 57.8718 176.817 57.5572C176.642 57.0537 176.454 56.5377 176.291 56.0216C176.19 55.7196 176.103 55.4301 176.015 55.128C176.052 55.0902 176.077 55.0399 176.115 55.0021C176.165 54.8385 176.215 54.6749 176.278 54.5113C176.404 54.3602 176.516 54.2092 176.642 54.0582C176.83 53.8316 176.792 53.6051 176.617 53.4037C176.441 53.2023 176.228 53.0764 175.952 53.2401C175.789 53.3785 175.626 53.5044 175.475 53.6428C175.312 53.7183 175.162 53.8064 174.999 53.882C174.836 53.8568 174.673 53.8316 174.497 53.8064C174.096 53.5925 173.719 53.3407 173.305 53.1645C173.167 53.1016 172.892 53.1645 172.766 53.2652C170.985 54.8385 169.204 56.4244 167.435 57.9977C165.454 59.7724 163.472 61.547 161.49 63.3217C160.512 64.1901 159.546 65.0712 158.58 65.9522C157.991 66.4934 157.401 67.0472 156.812 67.5884C156.322 68.0164 155.833 68.4443 155.344 68.8723C154.416 69.7029 153.475 70.5336 152.547 71.3517C151.644 72.1573 150.728 72.9628 149.825 73.7683C149.65 73.9319 149.486 74.1082 149.286 74.234C149.173 74.3095 148.972 74.3599 148.859 74.3095C148.019 73.9571 147.191 73.5669 146.363 73.1894C145.096 72.5475 143.842 71.9055 142.575 71.2636C140.907 70.4581 139.251 69.6652 137.583 68.8597C137.22 68.696 136.856 68.5324 136.492 68.3688C135.978 68.1045 135.464 67.8276 134.949 67.5633C134.786 67.4752 134.623 67.3871 134.448 67.299C132.829 66.506 131.199 65.7257 129.581 64.9076C129.405 64.8195 129.305 64.5929 129.167 64.4293C129.154 64.4419 129.129 64.467 129.117 64.4796C129.129 64.467 129.154 64.4545 129.167 64.4293C129.405 64.1272 129.644 63.8126 129.945 63.4224C129.681 63.3846 129.531 63.372 129.393 63.3594C128.916 63.3343 128.427 63.3594 127.95 63.2965C127.587 63.2588 127.298 63.3469 127.06 63.6238C126.232 63.1455 125.404 62.6672 124.576 62.1763C124.112 61.8365 123.673 61.4589 123.184 61.182C123.121 61.1443 123.059 61.1065 122.996 61.0813C123.686 62.3903 124.325 63.737 124.927 65.0964C124.815 64.8572 124.714 64.6055 124.601 64.3664C124.877 64.5426 125.178 64.6936 125.429 64.895C125.53 64.9705 125.555 65.1593 125.617 65.2977C125.492 65.4488 125.354 65.6124 125.228 65.7634C125.617 66.6696 125.981 67.601 126.332 68.5324C126.872 67.7269 127.423 66.9214 127.963 66.1158C128.038 66.0655 128.113 66.0152 128.189 65.9648C129.794 66.7074 131.412 67.4626 133.018 68.2052C133.971 68.6709 134.937 69.124 135.89 69.5897C137.182 70.2442 138.474 70.9112 139.778 71.5531C141.885 72.5852 143.993 73.6047 146.112 74.6368C146.351 74.7752 146.589 74.9137 146.827 75.0521C147.179 75.2535 147.53 75.4549 147.894 75.6689C147.379 76.0842 146.865 76.4995 146.351 76.9275C145.811 77.3806 145.197 77.6071 144.482 77.5946C143.905 77.5946 143.315 77.6323 142.738 77.6575C142.023 77.6953 141.296 77.7204 140.581 77.7456C140.205 77.7959 139.816 77.8463 139.44 77.884C138.612 78.0477 137.784 78.1987 136.956 78.3623C136.906 78.3623 136.856 78.3623 136.818 78.3623C136.492 78.1358 136.166 77.8966 135.827 77.6827C134.51 76.8394 133.193 76.0087 131.889 75.178C130.484 74.2844 129.079 73.3781 127.674 72.4845C129.418 78.249 130.371 84.3534 130.446 90.6843C130.534 90.6717 130.609 90.6466 130.697 90.634C131.575 90.4704 132.453 90.3193 133.319 90.1431C134.059 90.0047 134.799 89.841 135.539 89.69C135.777 89.6522 136.015 89.6145 136.254 89.5767C137.859 89.2872 139.452 88.9978 141.058 88.7083C141.359 88.6579 141.66 88.6076 141.961 88.5446C142.362 88.4565 142.751 88.3558 143.152 88.2677C143.177 88.2803 143.215 88.2929 143.24 88.3055C143.265 88.3055 143.278 88.3055 143.303 88.3181C143.366 89.3376 143.428 90.3697 143.466 91.3892C143.529 92.8743 143.566 94.3469 143.641 95.8321C143.641 96.0838 143.805 96.323 143.88 96.5621C144.457 96.8642 144.996 96.6502 145.51 96.3985C146.025 96.1468 146.526 95.8825 147.028 95.6056C147.141 95.5426 147.229 95.4545 147.342 95.3664L147.417 95.1147C147.417 95.1147 147.304 95.0392 147.279 95.0518C147.317 95.0518 147.367 95.0518 147.417 95.1147C147.392 95.2028 147.367 95.2783 147.342 95.3664C147.442 95.2783 147.555 95.2028 147.643 95.1021C148.082 94.5987 148.521 94.0952 148.972 93.6043C149.424 93.1135 149.449 93.1386 149.976 93.5666C150.829 94.2588 151.694 94.9259 152.547 95.6056C152.585 95.6056 152.635 95.593 152.672 95.5804C152.672 95.5804 152.585 95.593 152.547 95.6056C153.45 96.3104 154.366 97.0026 155.269 97.7075C155.758 98.0976 156.247 98.5004 156.749 98.8906C156.686 99.0542 156.648 99.2178 156.561 99.3689C155.908 100.527 155.244 101.672 154.579 102.83C154.04 103.774 153.5 104.731 152.961 105.675C152.76 106.04 152.798 106.115 153.212 106.191C153.588 106.191 153.964 106.191 154.341 106.191C154.692 106.153 155.056 106.128 155.407 106.065C155.595 106.027 155.77 105.889 155.946 105.8C156.548 105.083 157.15 104.366 157.74 103.648C158.292 103.019 158.856 102.39 159.383 101.735C160.976 99.7716 162.556 97.8082 164.149 95.8447C164.864 94.9637 165.592 94.0952 166.319 93.2142C166.444 93.0505 166.582 92.8869 166.708 92.7233C166.996 92.3835 167.297 92.0311 167.586 91.6912C167.736 91.5066 167.77 91.3766 167.686 91.301C166.971 91.2507 166.256 91.1626 165.541 91.1752C165.316 91.1752 165.09 91.4143 164.864 91.5402C164.801 91.5905 164.751 91.6409 164.688 91.6912C164.287 92.0814 163.886 92.4716 163.484 92.8743C163.371 92.9373 163.246 92.9876 163.146 93.0757C161.942 94.1833 160.75 95.2783 159.558 96.3985C159.345 96.5999 159.207 96.5747 158.994 96.3985C157.702 95.2531 156.41 94.1204 155.106 92.9876C154.278 92.2702 153.45 91.5528 152.635 90.8354C153.739 90.3822 154.842 89.9417 155.946 89.4886C157.175 88.7083 158.404 87.9153 159.634 87.135C160.65 86.2539 161.678 85.3855 162.694 84.4919C163.096 84.1394 163.447 83.7493 163.823 83.3717C164.036 83.4598 164.249 83.5353 164.463 83.6234C165.742 84.215 167.021 84.8065 168.288 85.4107C169.442 85.9645 170.596 86.5308 171.75 87.0846C173.882 88.1167 176.002 89.1488 178.134 90.1683C178.486 90.3193 178.849 90.4704 179.188 90.634C180.493 91.2633 181.797 91.8926 183.101 92.5219C183.352 92.6478 183.591 92.7736 183.842 92.8995C184.356 93.189 184.857 93.4911 185.372 93.7806L187.617 94.9133C187.73 94.9637 187.83 95.0266 187.943 95.0769C188.432 95.2406 188.909 95.4042 189.398 95.5552C189.611 95.6307 189.824 95.7063 190.038 95.7818V95.4671C188.382 94.5609 186.714 93.6547 185.058 92.7359L185.021 92.7233Z" fill="#1D1D1B"/>
<path d="M8.11523 59.8227C8.37864 59.3444 8.65458 58.8787 8.93052 58.4005C8.65458 58.8661 8.37864 59.3444 8.11523 59.8227Z" fill="#1D1D1B"/>
<path d="M10.0845 56.5251C10.3102 56.1601 10.5486 55.7951 10.7869 55.4301C10.5486 55.7951 10.3228 56.1601 10.0845 56.5251Z" fill="#1D1D1B"/>
<path d="M2.10718 74.9137C2.34549 74.0201 2.59635 73.1265 2.85975 72.2454C2.58381 73.1265 2.33295 74.0201 2.10718 74.9137Z" fill="#1D1D1B"/>
<path d="M4.13916 68.4947C4.37748 67.8654 4.61579 67.2486 4.87919 66.6193C4.62833 67.2361 4.37748 67.8654 4.13916 68.4947Z" fill="#1D1D1B"/>
<path d="M3.14819 71.3769C3.34888 70.7602 3.54957 70.1435 3.77534 69.5267C3.56211 70.1435 3.34888 70.7476 3.14819 71.3769Z" fill="#1D1D1B"/>
<path d="M31.119 153.817C33.891 150.129 30.1783 146.593 25.8886 143.345C21.6491 140.123 17.2465 137.505 14.462 141.193L8.54174 149.047C5.8701 152.596 9.30686 156.133 13.722 159.481C15.4529 160.79 17.1713 161.998 18.7517 162.98C18.4256 163.597 17.974 164.214 17.4848 164.704C15.8041 163.76 13.885 162.439 12.3422 161.268C5.71958 156.246 3.211 152.055 6.32164 147.902L12.6684 139.481C15.8417 135.265 20.9341 136.838 27.193 141.583C33.477 146.354 36.3995 150.859 33.2262 155.063L28.7484 161.004C26.7791 163.622 24.7221 163.559 22.1759 161.633C20.1314 160.085 19.6297 158.197 20.4826 156.913L20.3948 156.851C18.8269 157.883 16.9329 157.908 13.7721 155.516C10.7367 153.213 9.41974 150.935 11.4517 148.858L15.6159 144.604C17.6479 142.527 20.307 143.295 22.803 145.183C25.1862 146.995 26.5408 148.695 25.876 150.192L25.9889 150.281L27.5568 148.997C28.4599 149.538 29.4006 150.243 30.1908 150.998L23.681 157.656C22.7529 158.6 22.5898 159.33 23.8692 160.299C24.7346 160.954 25.5876 161.142 26.9924 159.267L31.1064 153.805L31.119 153.817ZM23.9193 152.206C24.396 150.771 24.0197 150.029 21.9877 148.481C20.3948 147.272 18.9273 146.479 17.4221 148.015L15.5783 149.903C14.0857 151.413 14.9888 152.433 16.7824 153.792C18.7517 155.29 19.6046 155.428 21.2477 154.925L23.9319 152.206H23.9193Z" fill="#1D1D1B"/>
<path d="M37.8169 169.978C34.2547 168.556 32.3231 166.555 33.3015 163.572L35.7599 155.97C36.8511 152.596 40.2377 152.42 44.8033 153.905C49.3439 155.391 52.003 157.543 50.9117 160.916L48.4533 168.518C47.4875 171.488 44.7908 171.979 41.1157 171.061L41.0655 171.199L41.7429 172.181L42.8466 175.013C41.6551 174.723 40.476 174.346 39.3472 173.867L37.8295 169.991L37.8169 169.978ZM47.2367 160.45C47.9014 158.386 46.1329 157.543 43.8626 156.8C41.5923 156.058 39.6733 155.693 38.996 157.757L36.9766 163.974C36.3118 166.013 38.0803 166.882 40.3506 167.624C42.6209 168.367 44.5525 168.707 45.2172 166.668L47.2367 160.45Z" fill="#1D1D1B"/>
<path d="M65.4113 157.631C66.3143 157.581 68.2961 157.706 68.986 157.857L68.2209 170.217C68.0076 173.779 64.7966 174.811 60.0554 174.509C55.2891 174.22 52.2036 172.797 52.4293 169.235L53.1945 156.876C54.1979 156.838 55.9037 156.939 56.8194 157.102L56.1044 168.745C55.9664 170.884 57.8479 171.274 60.2561 171.425C62.6142 171.577 64.5709 171.426 64.6963 169.273L65.4113 157.631Z" fill="#1D1D1B"/>
<path d="M71.8208 157.19C72.8744 156.951 74.4046 156.762 75.4206 156.725L77.5529 173.465C76.5495 173.691 75.0192 173.892 73.9531 173.93L71.8208 157.19Z" fill="#1D1D1B"/>
<path d="M84.4516 172.319L79.4595 156.196C80.5256 155.756 81.9053 155.328 82.9339 155.114L87.0479 168.417L95.8154 165.686C96.1792 166.441 96.568 167.675 96.6934 168.505L84.4516 172.319Z" fill="#1D1D1B"/>
<path d="M107.643 158.525L101.159 162.225L101.698 166.114C100.858 166.706 99.4277 167.524 98.4745 167.952L96.3923 149.727C97.2954 149.097 98.4368 148.443 99.4403 147.99L113.977 159.116C113.112 159.72 111.645 160.564 110.691 160.991L107.643 158.537V158.525ZM99.8166 152.282L100.745 159.129L105.197 156.586L99.8166 152.282Z" fill="#1D1D1B"/>
<path d="M116.561 156.851L105.21 144.39L114.768 135.63C115.432 136.171 116.273 137.09 116.749 137.807L109.876 144.113L112.548 147.046L119.233 140.904C119.898 141.445 120.713 142.351 121.177 143.043L114.492 149.186L117.264 152.231L124.137 145.926C124.789 146.454 125.655 147.411 126.119 148.103L116.561 156.863V156.851Z" fill="#1D1D1B"/>
<path d="M42.4702 93.4785V73.5418H52.6174C57.7349 73.5418 60.8456 74.9011 60.8456 78.9413V88.0916C60.8456 92.1066 57.7349 93.4911 52.6174 93.4911H42.4702V93.4785ZM56.581 79.7343C56.581 77.4939 54.7874 77.1415 52.6174 77.1415H46.7724V89.8285H52.6174C54.7874 89.8285 56.581 89.4509 56.581 87.2861V79.7343Z" fill="#1D1D1B"/>
<path d="M70.7546 77.0156H63.6678C63.5173 76.0465 63.5173 74.5361 63.6678 73.5292H82.1059C82.2188 74.5361 82.2188 76.0339 82.1059 77.0156H75.0192V93.4785C73.815 93.5918 71.9963 93.5918 70.7546 93.4785V77.0156Z" fill="#1D1D1B"/>
<path d="M95.7777 89.174H86.96L85.2542 93.4785C84.0501 93.5918 82.1059 93.5918 80.8767 93.4785L89.3432 73.5418C90.6351 73.4285 92.1904 73.4285 93.4823 73.5418L101.949 93.4785C100.72 93.5918 98.7127 93.5918 97.4835 93.4785L95.7777 89.174ZM91.3626 78.1736L88.3397 85.7505H94.398L91.3751 78.1736H91.3626Z" fill="#1D1D1B"/>
</g>
<defs>
<clipPath id="clip0_26_711">
<rect width="190" height="175" fill="white"/>
</clipPath>
</defs>
</svg>
